<?xml version="1.0" standalone="no"?>
<!DOCTYPE svg PUBLIC "-//W3C//DTD SVG 20010904//EN"
 "http://www.w3.org/TR/2001/REC-SVG-20010904/DTD/svg10.dtd">
<svg version="1.0" xmlns="http://www.w3.org/2000/svg"
 width="300.000000pt" height="300.000000pt" viewBox="0 0 300.000000 300.000000"
 preserveAspectRatio="xMidYMid meet">

<g transform="translate(0.000000,300.000000) scale(0.100000,-0.100000)"
fill="#ffffff" stroke="none">
<path d="M1644 2855 c24 -62 130 -187 241 -283 72 -61 53 -70 -39 -19 l-60 33
-59 -29 c-38 -19 -107 -39 -193 -56 -73 -14 -135 -29 -139 -32 -3 -4 26 -9 65
-13 75 -8 96 -26 29 -26 -70 0 -240 -40 -322 -75 -89 -38 -166 -83 -217 -126
l-35 -29 53 20 c29 11 56 20 59 20 4 0 -31 -39 -78 -87 l-84 -88 118 -3 118
-3 47 40 c62 51 156 98 251 123 117 30 366 26 456 -8 8 -4 15 5 20 25 9 43 58
81 103 81 l37 -1 -35 -18 c-83 -44 -96 -103 -35 -159 35 -32 40 -33 88 -28
125 16 202 15 245 -1 48 -18 51 -27 21 -59 l-21 -23 63 2 c63 2 64 2 67 -26 3
-21 8 -27 19 -23 8 3 16 6 19 6 2 0 10 13 19 30 17 33 21 105 5 95 -6 -3 -10
4 -10 17 -1 23 -1 23 -21 -4 -11 -16 -24 -28 -28 -28 -4 0 -23 22 -42 50 -32
48 -49 61 -49 41 0 -6 -12 -3 -27 4 -16 8 -36 12 -45 9 -18 -5 -58 11 -70 29
-11 17 2 34 34 48 30 12 39 8 51 -25 1 -5 22 1 45 13 72 37 129 20 95 -28 -15
-23 -15 -23 8 -11 13 7 34 21 46 32 l21 20 14 -49 15 -48 11 40 c7 22 12 55
12 73 0 36 5 39 40 16 14 -9 9 -2 -10 15 -19 16 -47 42 -62 56 -22 22 -30 24
-47 15 -22 -11 -61 1 -61 20 0 6 -11 10 -24 10 -35 0 -74 36 -86 79 -14 52
-47 65 -138 56 -61 -6 -77 -4 -131 18 -106 43 -173 89 -275 190 -54 53 -96 90
-92 82z m604 -378 c17 -13 15 -47 -3 -47 -8 0 -32 16 -53 35 l-37 36 40 -7
c22 -4 46 -11 53 -17z"/>
<path d="M1605 2661 c74 -76 107 -93 131 -69 13 13 5 21 -68 64 -134 79 -136
79 -63 5z"/>
<path d="M645 2378 c40 -15 45 -25 30 -63 -17 -38 -6 -95 24 -136 23 -31 27
-59 10 -59 -24 0 -77 42 -89 69 -6 16 -20 37 -30 46 -25 23 -77 36 -103 25
-20 -8 -19 -9 8 -10 17 0 35 -4 41 -8 16 -11 34 -48 34 -72 0 -11 8 -23 18
-27 9 -4 33 -24 53 -45 36 -38 37 -38 110 -37 74 1 74 1 109 42 28 32 30 37
10 24 -34 -23 -49 -21 -56 8 -9 37 3 75 24 75 49 0 55 56 11 102 -21 23 -27
26 -20 11 20 -40 14 -55 -18 -48 -28 6 -30 4 -35 -27 -3 -18 -7 -49 -9 -68
l-3 -35 -22 45 c-23 47 -29 100 -12 100 18 0 10 36 -12 58 -24 21 -70 43 -91
41 -7 0 2 -5 18 -11z"/>
<path d="M1290 2125 c-25 -13 -56 -33 -70 -44 l-25 -21 39 0 c25 0 44 6 53 18
30 38 54 72 51 72 -2 -1 -23 -12 -48 -25z"/>
<path d="M2033 2011 c-29 -26 -53 -51 -53 -54 0 -26 66 25 93 72 10 17 17 31
15 31 -2 -1 -27 -22 -55 -49z"/>
<path d="M550 2011 c-83 -26 -141 -74 -181 -151 l-24 -45 0 -595 0 -595 24
-53 c30 -67 98 -127 164 -147 75 -22 1229 -22 1303 0 67 20 117 64 151 133
l28 57 3 579 c2 504 1 586 -13 633 -20 69 -77 133 -148 164 l-52 24 -615 2
c-338 1 -626 -2 -640 -6z m1227 -96 c63 -19 98 -46 126 -98 22 -42 22 -42 22
-602 l0 -560 -28 -47 c-18 -31 -44 -57 -75 -75 l-47 -28 -581 -3 -581 -3 -54
29 c-34 17 -65 44 -84 71 l-30 43 -3 551 c-2 374 0 564 8 589 19 64 74 115
150 139 14 4 273 8 576 8 462 1 559 -1 601 -14z"/>
<path d="M752 1557 l-102 -102 0 -252 0 -251 108 -101 107 -101 325 0 325 1
108 104 107 104 -2 168 -3 168 -327 3 c-181 1 -328 1 -328 -1 0 -2 42 -45 93
-95 l92 -92 93 0 92 0 0 -75 0 -75 -250 0 -250 0 0 245 0 245 303 0 302 0 105
105 105 105 -450 0 -450 0 -103 -103z"/>
<path d="M2088 1897 c-44 -30 -59 -47 -40 -47 8 0 100 79 92 80 -3 0 -26 -15
-52 -33z"/>
<path d="M2060 1627 c0 -8 18 -22 41 -32 45 -21 70 -50 62 -72 -7 -17 -55 -43
-83 -43 -35 0 -22 -28 18 -39 60 -17 73 -15 66 13 -4 18 -1 26 14 30 19 6 77
-4 116 -19 17 -8 17 -6 2 23 -35 68 -119 128 -203 147 -25 5 -33 3 -33 -8z"/>
<path d="M2295 1419 c-44 -5 -115 -8 -158 -7 -42 2 -77 0 -77 -4 0 -3 8 -20
17 -36 17 -29 17 -31 -1 -50 -9 -11 -16 -31 -14 -44 3 -20 9 -23 51 -26 27 -2
74 2 105 9 l57 13 -51 7 c-71 9 -94 24 -94 58 l0 29 98 7 c190 13 255 -32 254
-176 -1 -81 -33 -182 -103 -324 -84 -170 -160 -251 -282 -298 -50 -18 -65 -30
-94 -74 -38 -57 -108 -109 -159 -119 -45 -8 -43 -21 6 -29 54 -9 74 -1 155 60
85 63 109 76 204 104 85 26 115 52 131 112 34 135 52 179 99 243 55 75 66 100
81 201 6 39 20 88 30 111 11 22 20 51 20 65 0 34 -51 129 -80 150 -33 23 -96
29 -195 18z"/>
<path d="M2570 1350 c-8 -5 -11 -12 -7 -16 4 -4 15 0 24 9 18 18 8 23 -17 7z"/>
<path d="M2557 1134 c-9 -9 2 -24 17 -24 7 0 21 7 32 15 18 14 17 14 -12 15
-17 0 -34 -3 -37 -6z"/>
<path d="M2410 795 c-18 -21 -3 -35 38 -35 57 0 68 13 27 33 -43 21 -49 21
-65 2z"/>
<path d="M2087 446 c-7 -17 29 -73 60 -93 21 -14 22 -14 13 14 -5 15 -12 42
-17 58 -9 33 -46 47 -56 21z"/>
<path d="M1416 348 c-7 -27 -7 -79 0 -61 3 6 27 26 55 43 27 18 49 34 49 36 0
2 -22 4 -49 4 -42 0 -49 -3 -55 -22z"/>
<path d="M1608 358 c16 -8 28 -8 45 0 19 9 17 11 -23 11 -40 0 -42 -2 -22 -11z"/>
<path d="M1724 325 c-9 -14 -19 -46 -22 -71 l-5 -46 47 46 c34 33 47 52 44 68
-5 34 -42 36 -64 3z"/>
</g>
</svg>
